<svg width="30" height="28" viewBox="0 0 41 40" fill="none" xmlns="http://www.w3.org/2000/svg">
<g clip-path="url(#clip0_7_1952)">
<path d="M34.018 15.2101V13.6723C34.018 9.9916 32.7155 6.57143 30.3542 4.03361C27.934 1.42857 24.6063 0 20.976 0H19.7071C16.0768 0 12.7491 1.42857 10.3289 4.03361C7.9676 6.57143 6.66507 9.9916 6.66507 13.6723V15.2101C3.79953 15.4034 1.52222 17.7899 1.52222 20.7059V23.1092C1.52222 26.1429 3.99281 28.6134 7.02642 28.6134H10.1273C10.6819 28.6134 11.1357 28.1597 11.1357 27.605V16.2017C11.1357 15.6471 10.6819 15.1933 10.1273 15.1933H8.68188V13.6723C8.68188 7.02521 13.4214 2.01681 19.6987 2.01681H20.9676C27.2533 2.01681 31.9844 7.02521 31.9844 13.6723V15.1933H30.539C29.9844 15.1933 29.5306 15.6471 29.5306 16.2017V27.5966C29.5306 28.1513 29.9844 28.605 30.539 28.605H31.9508C31.539 33.8655 27.9172 35.084 26.2365 35.3613C25.7743 33.9412 24.4382 32.916 22.8668 32.916H20.3457C18.3962 32.916 16.8079 34.5042 16.8079 36.4538C16.8079 38.4034 18.3962 40 20.3457 40H22.8752C24.5054 40 25.8752 38.8908 26.2869 37.395C27.1105 37.2773 28.413 36.9832 29.7071 36.2269C31.5306 35.1597 33.6903 32.9832 33.976 28.5966C36.8584 28.4202 39.1441 26.0252 39.1441 23.1008V20.6975C39.1525 17.7899 36.8836 15.395 34.018 15.2101ZM9.13566 26.5882H7.04323C5.11886 26.5882 3.55583 25.0252 3.55583 23.1008V20.6975C3.55583 18.7731 5.11886 17.2101 7.04323 17.2101H9.13566V26.5882ZM22.8752 37.9832H20.3457C19.5054 37.9832 18.8247 37.3025 18.8247 36.4622C18.8247 35.6218 19.5054 34.9412 20.3457 34.9412H22.8752C23.7155 34.9412 24.3962 35.6218 24.3962 36.4622C24.3962 37.3025 23.7155 37.9832 22.8752 37.9832ZM37.1357 23.1008C37.1357 25.0252 35.5726 26.5882 33.6483 26.5882H31.5558V17.2101H33.6483C35.5726 17.2101 37.1357 18.7731 37.1357 20.6975V23.1008Z" fill="#00B307"/>
</g>
<defs>
<clipPath id="clip0_7_1952">
<rect width="40" height="40" fill="white" transform="translate(0.333252)"/>
</clipPath>
</defs>
</svg>
