<svg width="30" height="28" viewBox="0 0 40 28" fill="none" xmlns="http://www.w3.org/2000/svg">
<path d="M32.7021 20.3042C31.7247 20.3042 30.7962 20.687 30.0957 21.3793C29.3952 22.0798 29.0043 22.992 29.0043 23.9694C29.0043 24.9468 29.3871 25.8591 30.0957 26.5595C30.8043 27.2519 31.7247 27.6347 32.7021 27.6347C34.7058 27.6347 36.3348 25.9894 36.3348 23.9694C36.3348 21.9495 34.7058 20.3042 32.7021 20.3042ZM32.7021 26.0057C31.5781 26.0057 30.6333 25.0772 30.6333 23.9694C30.6333 22.8617 31.5781 21.9332 32.7021 21.9332C33.8098 21.9332 34.7058 22.8454 34.7058 23.9694C34.7058 25.0935 33.8098 26.0057 32.7021 26.0057ZM33.6469 8.09488C33.5003 7.95641 33.3048 7.88311 33.1012 7.88311H28.9228C28.4749 7.88311 28.1083 8.24964 28.1083 8.69761V15.3765C28.1083 15.8245 28.4749 16.191 28.9228 16.191H35.5528C36.0008 16.191 36.3673 15.8245 36.3673 15.3765V10.9049C36.3673 10.6768 36.2696 10.4569 36.0986 10.3022L33.6469 8.09488ZM34.7383 14.562H29.7373V9.50396H32.7835L34.7383 11.2633V14.562ZM12.8121 20.3042C11.8347 20.3042 10.9061 20.687 10.2057 21.3793C9.50519 22.0798 9.11423 22.992 9.11423 23.9694C9.11423 24.9468 9.49705 25.8591 10.2057 26.5595C10.9143 27.2519 11.8347 27.6347 12.8121 27.6347C14.8157 27.6347 16.4447 25.9894 16.4447 23.9694C16.4447 21.9495 14.8157 20.3042 12.8121 20.3042ZM12.8121 26.0057C11.688 26.0057 10.7432 25.0772 10.7432 23.9694C10.7432 22.8617 11.688 21.9332 12.8121 21.9332C13.9198 21.9332 14.8157 22.8454 14.8157 23.9694C14.8157 25.0935 13.9198 26.0057 12.8121 26.0057ZM7.37935 21.306H5.74221V19.1395C5.74221 18.6915 5.37569 18.325 4.92771 18.325C4.47974 18.325 4.11322 18.6915 4.11322 19.1395V22.1205C4.11322 22.5685 4.47974 22.935 4.92771 22.935H7.37935C7.82733 22.935 8.19385 22.5685 8.19385 22.1205C8.19385 21.6726 7.82733 21.306 7.37935 21.306ZM11.5089 16.867C11.5089 16.419 11.1423 16.0525 10.6944 16.0525H0.814498C0.366524 16.0525 0 16.419 0 16.867C0 17.315 0.366524 17.6815 0.814498 17.6815H10.6944C11.1423 17.6815 11.5089 17.3231 11.5089 16.867ZM2.46793 13.9267L12.3478 13.9837C12.7958 13.9837 13.1623 13.6253 13.1704 13.1773C13.1786 12.7212 12.8121 12.3547 12.3641 12.3547L2.48422 12.2977C2.47607 12.2977 2.47607 12.2977 2.47607 12.2977C2.0281 12.2977 1.66158 12.6561 1.66158 13.104C1.65343 13.5602 2.01996 13.9267 2.46793 13.9267ZM4.12951 10.2289H14.0094C14.4573 10.2289 14.8239 9.86234 14.8239 9.41437C14.8239 8.96639 14.4573 8.59987 14.0094 8.59987H4.12951C3.68153 8.59987 3.31501 8.96639 3.31501 9.41437C3.31501 9.86234 3.68153 10.2289 4.12951 10.2289ZM39.6986 9.12929L33.8668 4.29932C33.7202 4.17715 33.541 4.11199 33.3456 4.11199H26.4875V1.17979C26.4875 0.73182 26.121 0.365295 25.673 0.365295H4.92771C4.47974 0.365295 4.11322 0.73182 4.11322 1.17979V7.14192C4.11322 7.58989 4.47974 7.95642 4.92771 7.95642C5.37569 7.95642 5.74221 7.58989 5.74221 7.14192V1.99429H24.8666V21.306H18.1877C17.7398 21.306 17.3732 21.6726 17.3732 22.1205C17.3732 22.5685 17.7398 22.935 18.1877 22.935H28.1328C28.5807 22.935 28.9473 22.5685 28.9473 22.1205C28.9473 21.6726 28.5807 21.306 28.1328 21.306H26.4956V5.74098H33.0605L38.371 10.1393L38.314 21.2897H37.4669C37.0189 21.2897 36.6524 21.6563 36.6524 22.1042C36.6524 22.5522 37.0189 22.9187 37.4669 22.9187H39.1203C39.5683 22.9187 39.9348 22.5604 39.9348 22.1124L40 9.7646C39.9919 9.52025 39.886 9.28405 39.6986 9.12929Z" fill="#00B307"/>
</svg>
