<?xml version="1.0" encoding="UTF-8"?>
<svg xmlns="http://www.w3.org/2000/svg" xmlns:xlink="http://www.w3.org/1999/xlink" viewBox="0 0 579.66 579.66">
  <defs>
    <style>
      .cls-1 {
        fill: url(#linear-gradient-2);
      }

      .cls-2 {
        fill: #ecc44b;
      }

      .cls-3 {
        fill: #e64610;
      }

      .cls-4 {
        isolation: isolate;
      }

      .cls-5 {
        fill: url(#linear-gradient-8);
      }

      .cls-5, .cls-6, .cls-7, .cls-8, .cls-9 {
        opacity: .3;
      }

      .cls-5, .cls-10, .cls-11, .cls-12, .cls-7, .cls-8, .cls-13, .cls-9, .cls-14 {
        mix-blend-mode: multiply;
      }

      .cls-6, .cls-15 {
        mix-blend-mode: overlay;
      }

      .cls-6, .cls-15, .cls-16 {
        fill: #fff;
      }

      .cls-10 {
        fill: url(#linear-gradient-13);
      }

      .cls-10, .cls-13 {
        opacity: .4;
      }

      .cls-17 {
        fill: #010101;
        opacity: .32;
      }

      .cls-18 {
        fill: #ed6c16;
      }

      .cls-19 {
        fill: #aaca3a;
      }

      .cls-15 {
        opacity: .6;
      }

      .cls-20 {
        fill: #87bd24;
      }

      .cls-11 {
        fill: #cfbfc0;
      }

      .cls-21 {
        fill: #753a14;
      }

      .cls-22 {
        fill: #e94a48;
      }

      .cls-12 {
        fill: #decccd;
      }

      .cls-23 {
        fill: #6fa02e;
      }

      .cls-24 {
        fill: #32130d;
      }

      .cls-25 {
        fill: #a86836;
      }

      .cls-7 {
        fill: url(#linear-gradient-10);
      }

      .cls-26 {
        fill: url(#linear-gradient-5);
      }

      .cls-27 {
        fill: #924c28;
      }

      .cls-28 {
        fill: #eb5f0a;
      }

      .cls-8 {
        fill: url(#linear-gradient-6);
      }

      .cls-29 {
        fill: #ef7e7f;
      }

      .cls-30 {
        fill: url(#linear-gradient-7);
      }

      .cls-13 {
        fill: url(#linear-gradient-14);
      }

      .cls-31 {
        fill: url(#linear-gradient-9);
      }

      .cls-16 {
        opacity: .59;
      }

      .cls-9 {
        fill: url(#linear-gradient-11);
      }

      .cls-32 {
        fill: url(#linear-gradient-3);
      }

      .cls-33 {
        fill: url(#linear-gradient);
      }

      .cls-34 {
        fill: #73962e;
      }

      .cls-35 {
        fill: #894826;
      }

      .cls-14 {
        fill: url(#linear-gradient-4);
        opacity: .5;
      }

      .cls-36 {
        fill: #3f5220;
      }

      .cls-37 {
        fill: url(#linear-gradient-12);
      }
    </style>
    <linearGradient id="linear-gradient" x1="856.89" y1="-7.81" x2="856.89" y2="739.59" gradientTransform="translate(-567.06)" gradientUnits="userSpaceOnUse">
      <stop offset="0" stop-color="#fab311"/>
      <stop offset=".89" stop-color="#ee7327"/>
      <stop offset="1" stop-color="#ed6b2a"/>
    </linearGradient>
    <linearGradient id="linear-gradient-2" x1="856.89" y1="3.6" x2="856.89" y2="722.34" gradientTransform="translate(-567.06)" gradientUnits="userSpaceOnUse">
      <stop offset="0" stop-color="#a1d8eb"/>
      <stop offset=".51" stop-color="#61caec"/>
      <stop offset="1" stop-color="#21bcef"/>
    </linearGradient>
    <linearGradient id="linear-gradient-3" x1="856.89" y1="61.75" x2="856.89" y2="489.9" xlink:href="#linear-gradient"/>
    <linearGradient id="linear-gradient-4" x1="861.72" y1="231.46" x2="861.72" y2="381.73" xlink:href="#linear-gradient"/>
    <linearGradient id="linear-gradient-5" x1="683.94" y1="259.42" x2="706.01" y2="415.83" gradientTransform="translate(-567.06)" gradientUnits="userSpaceOnUse">
      <stop offset="0" stop-color="#009a3f"/>
      <stop offset=".74" stop-color="#005a29"/>
      <stop offset="1" stop-color="#004322"/>
    </linearGradient>
    <linearGradient id="linear-gradient-6" x1="687.45" y1="277.18" x2="707.23" y2="417.31" xlink:href="#linear-gradient-5"/>
    <linearGradient id="linear-gradient-7" x1="1051.57" y1="217.1" x2="1047.89" y2="323.88" xlink:href="#linear-gradient-5"/>
    <linearGradient id="linear-gradient-8" x1="1050.75" y1="240.97" x2="1047.85" y2="325.16" xlink:href="#linear-gradient-5"/>
    <linearGradient id="linear-gradient-9" x1="864.56" y1="253.08" x2="864.56" y2="574.14" xlink:href="#linear-gradient-5"/>
    <linearGradient id="linear-gradient-10" x1="969.12" y1="244.41" x2="969.12" y2="672.46" xlink:href="#linear-gradient-5"/>
    <linearGradient id="linear-gradient-11" x1="817.51" y1="247.36" x2="817.51" y2="676.93" xlink:href="#linear-gradient-5"/>
    <linearGradient id="linear-gradient-12" x1="894.36" y1="245.37" x2="894.36" y2="681.35" gradientTransform="translate(-567.06)" gradientUnits="userSpaceOnUse">
      <stop offset="0" stop-color="#ffe1a2"/>
      <stop offset=".5" stop-color="#dca16f"/>
      <stop offset="1" stop-color="#b85f3a"/>
    </linearGradient>
    <linearGradient id="linear-gradient-13" x1="960.52" y1="261.47" x2="960.52" y2="573.76" xlink:href="#linear-gradient-12"/>
    <linearGradient id="linear-gradient-14" x1="824.37" y1="342.85" x2="824.37" y2="530.47" xlink:href="#linear-gradient-12"/>
  </defs>
  <g class="cls-4">
    <g id="Capa_1" data-name="Capa 1">
      <g>
        <path class="cls-33" d="m579.66,289.84c0,160.07-129.77,289.82-289.84,289.82-126.77,0-234.53-81.39-273.87-194.76-10.33-29.77-15.95-61.77-15.95-95.06C0,129.77,129.75,0,289.82,0s283.58,123.6,289.6,278.35c.16,3.8.23,7.63.23,11.49Z"/>
        <path class="cls-1" d="m568.54,289.83c0,14.63-1.13,29.01-3.3,43.05-5.5,35.46-17.69,68.72-35.24,98.43-6.99,11.86-14.84,23.15-23.46,33.79-51.1,63.1-129.19,103.44-216.72,103.44s-165.63-40.35-216.73-103.47c-5.65-6.97-10.97-14.24-15.93-21.78-2.61-3.91-5.1-7.91-7.5-11.98-9.32-15.76-17.11-32.51-23.2-50.06-9.93-28.63-15.34-59.4-15.34-91.42,0-6.33.21-12.63.64-18.87.57-8.7,1.55-17.31,2.92-25.76,2.26-14.16,5.62-27.95,9.93-41.31,16.68-51.54,47.97-96.5,88.98-129.99,9.48-7.74,19.46-14.87,29.92-21.32,37.95-23.46,81.96-38.07,129.13-40.93,5.69-.37,11.41-.54,17.18-.54s11.51.17,17.2.52c47.17,2.87,91.17,17.48,129.12,40.94,10.45,6.45,20.44,13.58,29.9,21.32,41.01,33.5,72.3,78.46,89,129.99.3.89.57,1.79.83,2.7,3.91,12.51,6.97,25.41,9.1,38.61,1.77,10.99,2.9,22.19,3.34,33.59.16,3.65.23,7.34.23,11.04Z"/>
        <path class="cls-15" d="m302.31,229.41l227.69,201.9c-6.99,11.86-14.84,23.15-23.46,33.79l-4.8,4.8-206.75-233.2,18.7,311.09h-47.71l18.68-311.05-206.73,233.17-4.84-4.84c-8.61-10.63-16.45-21.92-23.43-33.76l227.69-201.9L14.68,245.2c2.26-14.16,5.62-27.95,9.93-41.31l252.74,15.18L113.6,73.9c9.48-7.74,19.46-14.87,29.92-21.32l141.14,159.18-12.02-200.11c5.69-.37,11.41-.54,17.18-.54s11.51.17,17.2.52l-12.04,200.14L436.15,52.58c10.45,6.45,20.44,13.58,29.9,21.32l-163.75,145.18,252.75-15.18c4.31,13.36,7.65,27.15,9.93,41.31l-262.67-15.79Z"/>
        <path class="cls-32" d="m444.69,224.26c0,2.21-.05,4.42-.16,6.61-3.44,82.46-71.38,148.24-154.71,148.24-66.39,0-123.02-41.78-145.02-100.5-6.35-16.91-9.83-35.22-9.83-54.35,0-85.54,69.33-154.87,154.85-154.87s154.87,69.33,154.87,154.87Z"/>
        <path class="cls-6" d="m289.82,69.39c-85.53,0-154.86,69.35-154.86,154.88,0,19.12,3.49,37.44,9.84,54.34,22,58.73,78.64,100.52,145.02,100.52,83.32,0,151.27-65.79,154.72-148.26.09-2.18.14-4.39.14-6.6,0-85.53-69.33-154.88-154.86-154.88Zm143.23,160.95c-3.22,77-66.13,137.3-143.23,137.3-59.44,0-113.41-37.4-134.26-93.05-6.05-16.07-9.1-33.01-9.1-50.32,0-79.05,64.32-143.39,143.36-143.39s143.36,64.34,143.36,143.39c0,2.02-.05,4.07-.14,6.07Z"/>
        <path class="cls-14" d="m444.53,230.87c-3.44,82.46-71.38,148.24-154.71,148.24-66.39,0-123.02-41.78-145.02-100.5,26.37-12.96,55.95-24.26,89.05-32.91,4.64-1.22,9.37-2.38,14.16-3.5,1.11-.26,2.23-.5,3.34-.77,3.18-.71,6.4-1.41,9.67-2.07,2.35-.49,4.71-.97,7.11-1.43,3.41-.66,6.87-1.29,10.37-1.88,2.23-.38,4.47-.75,6.73-1.1,28.28-4.52,58.75-7.17,91.57-7.5,23.79-.23,46.35.97,67.73,3.39Z"/>
        <path class="cls-26" d="m233.96,289.36s-65.92,128.93-68.84,130.86c-2.02,1.36-68.11,14.96-107.96,23.06-2.61-3.91-5.1-7.91-7.5-11.98-9.32-15.76-17.11-32.51-23.2-50.06-2.24-6.44-4.24-12.98-5.98-19.62-6.1-22.91-9.36-46.98-9.36-71.8,0-6.33.21-12.63.64-18.87,35.45-6.54,91.73-12.84,150.22-2.99,24.04,4.04,48.47,10.8,71.97,21.39Z"/>
        <path class="cls-6" d="m233.96,289.36s-65.92,128.93-68.84,130.86c-.23.16-1.4.48-3.31.97,15.15-27.17,64.59-123.87,64.59-123.87-23.51-10.57-47.95-17.35-71.97-21.38-54.68-9.22-107.46-4.32-143.04,1.72.09-2.25.21-4.46.37-6.69,35.44-6.55,91.74-12.85,150.24-3.01,24.02,4.05,48.45,10.8,71.97,21.4Z"/>
        <path class="cls-8" d="m233.96,289.36s-65.92,128.93-68.84,130.86c-2.02,1.36-68.11,14.96-107.96,23.06-2.61-3.91-5.1-7.91-7.5-11.98-9.32-15.76-17.11-32.51-23.2-50.06-2.24-6.44-4.24-12.98-5.98-19.62,55.33-52.77,118.52-83.52,141.51-93.66,24.04,4.04,48.47,10.8,71.97,21.39Z"/>
        <path class="cls-30" d="m568.54,289.83c0,14.63-1.13,29.01-3.3,43.05l-6.52-2.19-95.73-26.7s-33.13-16.56-42.33-20.25c-9.2-3.69-23.93-34.98-23.93-34.98,0,0,15.58-9.48,43.97-19.51,27.36-9.69,66.6-19.9,115.19-22.66,3.91,12.51,6.97,25.41,9.1,38.61.85,5.27,1.55,10.59,2.11,15.95.59,5.83,1.01,11.71,1.23,17.64.16,3.65.23,7.34.23,11.04Z"/>
        <path class="cls-6" d="m446.36,234.91c-28.39,10.04-43.97,19.52-43.97,19.52,0,0,8.6,18.25,16.76,28.53-9.22-6.14-22.41-34.18-22.41-34.18,0,0,15.58-9.47,43.95-19.52,27.38-9.68,66.61-19.91,115.21-22.66.62,1.95,1.2,3.91,1.77,5.88-46.8,3.1-84.68,13.01-111.3,22.43Z"/>
        <path class="cls-5" d="m568.54,289.83c0,14.63-1.13,29.01-3.3,43.05l-6.52-2.19-95.73-26.7s-33.13-16.56-42.33-20.25c-9.2-3.69-23.93-34.98-23.93-34.98,0,0,15.58-9.48,43.97-19.51,13.76,1.37,75.8,8.66,126.39,31.9.59,5.83,1.01,11.71,1.23,17.64.16,3.65.23,7.34.23,11.04Z"/>
        <path class="cls-31" d="m568.54,289.83c0,20.58-2.23,40.61-6.47,59.92-20.68,94.44-89.26,170.96-179.01,202.8-10.3,3.65-20.87,6.71-31.69,9.15-19.79,4.47-40.4,6.84-61.55,6.84-13.36,0-26.51-.94-39.38-2.77-45.34-6.42-87.19-23.74-122.78-49.26-20.38-14.61-38.72-31.9-54.51-51.36-20.09-24.78-36.02-53.12-46.7-83.9,44.3-45.53,110.86-93.23,207.39-118.46,4.64-1.22,9.37-2.38,14.16-3.5,1.11-.26,2.23-.5,3.34-.77,3.18-.71,6.4-1.41,9.67-2.07,2.35-.49,4.71-.97,7.11-1.43,3.41-.66,6.87-1.29,10.37-1.88,2.23-.38,4.47-.75,6.73-1.1,28.28-4.52,58.75-7.17,91.57-7.5,75.76-.75,139.13,13.13,191.51,34.23.16,3.65.23,7.34.23,11.04Z"/>
        <path class="cls-6" d="m568.55,289.84c0,1.29,0,2.57-.02,3.84-.05-2.34-.12-4.69-.21-7.01-52.39-21.1-115.76-34.98-191.52-34.23-32.82.32-63.28,2.97-91.58,7.49-2.25.34-4.51.71-6.73,1.1-3.49.57-6.94,1.22-10.37,1.86-2.39.46-4.76.94-7.1,1.43-3.26.67-6.48,1.36-9.68,2.07-1.1.28-2.23.51-3.33.78-4.78,1.1-9.52,2.28-14.16,3.49-95.05,24.85-161.04,71.46-205.31,116.36-.71-1.91-1.4-3.84-2.07-5.77,44.29-45.54,110.86-93.23,207.38-118.47,4.64-1.22,9.38-2.39,14.16-3.49,1.1-.28,2.23-.51,3.33-.76,3.19-.71,6.41-1.43,9.68-2.09,2.34-.48,4.71-.97,7.1-1.43,3.42-.64,6.87-1.29,10.37-1.86,2.23-.39,4.48-.76,6.73-1.1,28.3-4.53,58.75-7.17,91.58-7.49,75.76-.76,139.14,13.13,191.52,34.23.16,3.65.23,7.33.23,11.06Z"/>
        <path class="cls-7" d="m562.07,349.75c-20.68,94.44-89.26,170.96-179.01,202.8-10.3,3.65-20.87,6.71-31.69,9.15,1.88-6.66,6.16-14.54,13.17-19.9,13.78-10.54,73-135.47,73-135.47,0,0-30.02-36.49-43-44.61-12.98-8.1-43.8-27.57-60.02-33.26-16.23-5.67-39.74-15.41-50.3-18.66-10.54-3.24-42.18-17.85-42.18-17.85l22.96-36.32c1.04-.21,2.09-.42,3.13-.61,3.41-.66,6.87-1.29,10.37-1.88,2.23-.38,4.47-.75,6.73-1.1-5.76,9.58-10.87,24.37,7.11,30.18,26.33,8.52,214.12,23.71,269.73,67.52Z"/>
        <path class="cls-9" d="m398.01,464.01c-12.28,20.89-78.65,67.59-78.65,67.59,0,0-31.76,15.65-68.91,34.18-45.34-6.42-87.19-23.74-122.78-49.26-20.38-14.61-38.72-31.9-54.51-51.36,92.03-10.97,252.58-58.14,253.57-82.27,1.24-29.48-109.37-29.48-111.82-72.49-1.01-17.55,20.54-38.02,36.44-51.87,3.18-.71,6.4-1.41,9.67-2.07,2.35-.49,4.71-.97,7.11-1.43-7.62,15.93-17.58,36.93-17.58,36.93,0,0,15.97,15.98,22.12,19.65,6.14,3.69,66.35,19.67,77.42,20.91,11.06,1.22,63.9,33.17,74.96,46.68,11.06,13.53-14.75,63.9-27.05,84.81Z"/>
        <path class="cls-37" d="m416.67,511.51c-17.72,14.7-28,28.61-33.6,41.05-25.88,9.18-53.52,14.66-82.27,15.76-3.64.16-7.3.23-10.97.23-53.55,0-103.59-15.11-146.08-41.34-5.5-3.37-10.85-6.94-16.07-10.68,74.16-56.25,243.68-87.99,250.95-125.84,4.89-25.43-37.05-39.62-77.38-52.82-34.87-11.44-68.53-22.16-69.68-38.82-.77-11.1,14.37-28.65,29.46-42.58,3.97-.83,7.98-1.62,12.05-2.35,1.79-.33,3.6-.64,5.43-.96-6.66,11.72-14.16,29.93-2.26,37.67,18.23,11.86,224.82,26.58,248.04,84.81,16.12,40.44-43.78,82.98-107.61,135.87Z"/>
        <path class="cls-10" d="m416.67,511.51c-17.72,14.7-28,28.61-33.6,41.05-25.88,9.18-53.52,14.66-82.27,15.76,15.06-46.32,85.64-93.17,126.46-114.53,55.22-28.91,86.04-57.8,55.22-93.1-30.82-35.31-187.16-44.93-212.84-61.62-19.48-12.66-4.8-34.93,3.43-44.94,1.79-.33,3.6-.64,5.43-.96-6.66,11.72-14.16,29.93-2.26,37.67,18.23,11.86,224.82,26.58,248.04,84.81,16.12,40.44-43.78,82.98-107.61,135.87Z"/>
        <path class="cls-13" d="m385.92,396.24c-10.94,35.36-137.61,68.79-190.97,95.16-23.93,11.83-40.35,24.94-51.2,35.79-5.5-3.37-10.85-6.94-16.07-10.68,74.16-56.25,243.68-87.99,250.95-125.84,4.89-25.43-37.05-39.62-77.38-52.82,30.14,4.35,94.7,25.97,84.69,58.39Z"/>
      </g>
      <g>
        <g>
          <path class="cls-36" d="m427.59,127.19c6.14,1.97,30.55,15.94,36.08,17.81-5.61,12.52-7.96,22.4-19.15,37.51,15.09-14.21,19.37-21.88,27.01-34.83,3.55,1.2,9.79,3.28,13.35,4.47-17.53,24.73-46.43,57.61-51.07,57.61-.1,0-.19-.02-.27-.05-2.37-1-4.17-3.73-4.98-7-1.12.59-2.42.84-3.79.84-4.41,0-9.44-2.64-10.65-5.3-.69-1.51,15.52-47.11,13.48-71.06m0-5.67c-1.27,0-2.52.42-3.53,1.24-1.48,1.18-2.28,3.03-2.12,4.92,1.42,16.64-6.95,45.9-10.98,59.95-.78,2.71-1.39,4.85-1.82,6.47-.65,2.46-1.16,4.4-.19,6.5,2.43,5.32,10.1,8.61,15.81,8.61.12,0,.23,0,.35,0,1.56,2.66,3.7,4.66,6.23,5.72.78.33,1.61.49,2.47.49,2.53,0,5.99,0,24.94-21.45,10.81-12.23,22.31-26.65,30.75-38.55,1.04-1.46,1.32-3.33.76-5.04-.56-1.71-1.89-3.05-3.59-3.62l-4.4-1.47c-3.12-1.04-6.61-2.21-8.93-2.99-.6-.2-1.21-.3-1.81-.3-.94,0-1.87.24-2.69.68-.64-1.44-1.86-2.55-3.36-3.06-2.21-.75-9.48-4.57-15.89-7.94-10.01-5.26-16.83-8.79-20.27-9.89-.57-.18-1.15-.27-1.73-.27h0Z"/>
          <path class="cls-20" d="m471.53,147.67c-7.64,12.95-11.91,20.62-27.01,34.83,11.18-15.1,13.54-24.98,19.15-37.51-5.53-1.87-29.93-15.83-36.08-17.81,2.04,23.95-14.17,69.55-13.48,71.06,1.59,3.48,9.73,6.94,14.45,4.46.82,3.27,2.61,6,4.98,7,3.61,1.52,33.42-32.28,51.34-57.56-3.56-1.19-9.8-3.27-13.35-4.47Z"/>
          <path class="cls-34" d="m471.53,147.67c-7.64,12.95-11.91,20.62-27.01,34.83,11.18-15.1,13.54-24.98,19.15-37.51-1.05-.35-2.77-1.14-4.91-2.2-.39.55-.81,1.09-1.22,1.63-2.69,11.5-4.94,22.36-18.5,28.14-6,2.56-12.42,3.32-18.76,2.7-3.34,12.61-6.48,22.29-6.17,22.97,1.59,3.48,9.73,6.94,14.45,4.46.82,3.27,2.61,6,4.98,7,3.61,1.52,33.42-32.28,51.34-57.56-3.56-1.19-9.8-3.27-13.35-4.47Z"/>
          <g>
            <path class="cls-18" d="m405.47,298.13c-4.67,9.26-11.31,17.15-18.17,26.85-6.28,8.87-12.64,20.01-20.21,29.01-13.7,16.29-26.9,30.62-39.92,42.48-4.09,3.73-23.95,18.04-24.92,1.01-.36-6.31,3.25-12.4,5.54-17.38,3.85-8.38,8.32-16.67,12.07-25.65,3.69-8.87,6.58-18.31,10.07-27.42,3.73-9.75,9.09-18.61,13.11-27.74,7.45-16.93,14.69-32.58,21.12-50.26,3.2-8.79,9.12-15.78,13.07-24.63,3.48-7.81,4.3-17.13,9.86-23.87,10.02-12.14,32.41-14.47,46.13-7.1,9.66,5.19,14.09,15.09,15.35,25.65,1.22,10.2-3.8,16.73-9.55,24.55-7,9.53-11.06,21.85-17.3,31.83-5.46,8.74-12.31,14.86-16.26,22.68Z"/>
            <path class="cls-36" d="m415.03,189.23c6.55,0,12.99,1.4,18.18,4.19,9.69,5.2,14.09,15.11,15.35,25.65,1.22,10.22-3.79,16.73-9.52,24.55-7.02,9.54-11.07,21.87-17.31,31.83-5.47,8.74-12.31,14.87-16.26,22.69-4.65,9.26-11.3,17.15-18.15,26.86-.92,1.32-1.87,2.68-2.8,4.1-1.21,1.8-2.46,3.67-3.71,5.57-4.25,6.54-8.71,13.39-13.71,19.32-7.23,8.6-14.32,16.65-21.31,24.07-.84.88-1.65,1.74-2.47,2.58-5.43,5.7-10.79,10.98-16.13,15.84-2.65,2.39-11.81,9.17-18.26,9.17-3.58,0-6.33-2.09-6.67-8.17-.35-6.32,3.24-12.4,5.54-17.39,3.85-8.36,8.32-16.67,12.06-25.63.95-2.3,1.86-4.62,2.73-6.99.2-.57.41-1.12.64-1.7,2.25-6.21,4.32-12.56,6.7-18.75,3.75-9.76,9.1-18.61,13.12-27.73,3.47-7.89,6.92-15.54,10.21-23.2.76-1.67,1.46-3.35,2.19-5.05,3.02-7.13,5.94-14.38,8.73-22.02,3.2-8.82,9.11-15.8,13.06-24.65,3.49-7.81,4.31-17.13,9.87-23.86,6.21-7.54,17.21-11.3,27.93-11.3m0-5.67v5.67-5.67c-13.34,0-25.42,5-32.31,13.36-4.27,5.17-6.08,11.16-7.83,16.95-.89,2.93-1.72,5.7-2.84,8.2-1.63,3.64-3.62,6.96-5.74,10.47-2.71,4.51-5.52,9.17-7.48,14.56-2.49,6.83-5.23,13.74-8.62,21.75l-.56,1.32c-.53,1.24-1.03,2.42-1.57,3.58-.02.04-.04.08-.05.12-2.11,4.91-4.24,9.72-6.5,14.81-1.22,2.76-2.46,5.54-3.69,8.35-1.6,3.62-3.41,7.19-5.33,10.97-2.75,5.41-5.59,11.01-7.89,17-1.49,3.88-2.87,7.84-4.2,11.67-.81,2.34-1.66,4.76-2.51,7.11-.2.51-.43,1.12-.67,1.78-.79,2.16-1.65,4.37-2.63,6.74-2.24,5.37-4.81,10.63-7.31,15.72-1.55,3.17-3.16,6.46-4.66,9.71-.35.75-.72,1.53-1.11,2.33-2.37,4.88-5.31,10.95-4.94,17.74.71,12.55,9.62,13.52,12.33,13.52,10.01,0,21.94-10.53,22.06-10.63,5.28-4.8,10.79-10.22,16.41-16.11.52-.54,1.04-1.08,1.57-1.64.3-.32.6-.63.91-.95,6.81-7.22,13.85-15.17,21.56-24.35,5.3-6.3,9.99-13.52,14.12-19.88,1.33-2.03,2.65-4,3.66-5.49.01-.02.03-.04.04-.06.89-1.36,1.82-2.7,2.7-3.96,1.82-2.58,3.67-5.08,5.46-7.5,4.9-6.63,9.52-12.9,13.12-20.06,1.9-3.76,4.76-7.32,7.79-11.09,2.74-3.4,5.57-6.92,8.21-11.13,2.89-4.6,5.3-9.63,7.64-14.49,2.97-6.18,5.78-12.03,9.43-16.98l.44-.59c5.71-7.77,11.61-15.8,10.15-27.99-1.68-14.09-8-24.45-18.3-29.97-5.92-3.18-13.13-4.86-20.86-4.86h0Z"/>
            <path class="cls-18" d="m441.44,240.29c-.76,1.09-1.58,2.2-2.4,3.32-1.3,1.77-2.49,3.64-3.63,5.57-4.97,8.47-8.62,18.16-13.68,26.27-5.46,8.72-12.33,14.86-16.27,22.68-.68,1.37-1.43,2.71-2.19,4.04-1.76,3.03-3.71,5.94-5.81,8.87-3.15,4.47-6.62,8.96-10.15,13.95-.91,1.33-1.86,2.69-2.79,4.11-1.2,1.79-2.47,3.67-3.7,5.58-4.24,6.52-8.73,13.38-13.72,19.31-7.23,8.61-14.33,16.65-21.32,24.08-.84.86-1.65,1.72-2.46,2.59-5.42,5.69-10.79,10.96-16.13,15.83-4.1,3.71-23.96,18.04-24.93,1.01-.36-6.33,3.24-12.41,5.53-17.4,3.87-8.37,8.32-16.66,12.05-25.63.95-2.31,1.88-4.62,2.75-6.99.19-.56.41-1.12.63-1.7,2.25-6.2,4.3-12.54,6.69-18.74,3.76-9.77,9.1-18.61,13.13-27.72,3.48-7.89,6.93-15.55,10.2-23.2.77-1.67,1.47-3.35,2.19-5.06,2.45-5.8,4.86-11.68,7.16-17.8.54-1.4,1.06-2.81,1.58-4.22.82-2.26,1.81-4.41,2.91-6.5,3.2-6.02,7.2-11.56,10.14-18.15,3.51-7.82,4.32-17.13,9.88-23.85,9.99-12.17,32.39-14.47,46.1-7.12,9.7,5.19,14.09,15.11,15.36,25.66,1.05,8.72-2.49,14.77-7.12,21.21Z"/>
            <path class="cls-28" d="m447,211.38c-.39.99-.75,1.89-1.07,2.6-3.21,7.14-6.09,14.43-9.31,21.56-6.09,13.47-15.51,27.27-27.13,36.5-11.88,9.42-29.59,14.81-44.1,8.53-4.24-1.84-7.79-4.48-10.75-7.65-.45,1.07-.91,2.13-1.4,3.18-3.28,7.65-6.73,15.31-10.2,23.2-4.02,9.1-9.37,17.95-13.13,27.72-2.39,6.2-4.45,12.54-6.69,18.74-.22.58-.44,1.14-.63,1.7-.87,2.37-1.8,4.68-2.75,6.99-3.73,8.97-8.18,17.26-12.05,25.63-2.3,4.99-5.89,11.07-5.53,17.4.96,17.03,20.83,2.7,24.93-1.01,5.34-4.87,10.71-10.13,16.13-15.83.81-.86,1.62-1.73,2.46-2.59,7-7.43,14.1-15.47,21.32-24.08,4.99-5.93,9.47-12.79,13.72-19.31,1.23-1.91,2.5-3.78,3.7-5.58.93-1.42,1.88-2.78,2.79-4.11,3.53-4.99,7-9.48,10.15-13.95,2.1-2.93,4.05-5.84,5.81-8.87.77-1.33,1.51-2.67,2.19-4.04,3.94-7.82,10.81-13.95,16.27-22.68,5.07-8.11,8.71-17.8,13.68-26.27,1.14-1.93,2.33-3.8,3.63-5.57.82-1.13,1.64-2.23,2.4-3.32,4.64-6.44,8.18-12.49,7.12-21.21-.31-2.63-.82-5.21-1.56-7.7Z"/>
            <path class="cls-3" d="m435.41,249.18c-1.25-.58-2.51-1.24-3.72-2-11.64-7.39-16-16.77-16-16.77,8.43,2.22,13.14,2.98,21.97,7.72,1.36.73,2.61,1.45,3.78,2.16l-6.03,8.89Z"/>
            <path class="cls-3" d="m393.67,261.65c-1.03-.05-15.44-1.01-31.07-8.39.54-1.4,1.06-2.81,1.58-4.22.82-2.26,1.81-4.41,2.91-6.5.35.15.74.28,1.11.43,9,3.5,15.86,10.32,25.47,18.68Z"/>
            <path class="cls-3" d="m403.26,302.17c-1.76,3.03-3.71,5.94-5.81,8.87-8.37-5.29-14.63-11.6-21.45-18.71,0,0,10.39,0,27.26,9.84Z"/>
            <path class="cls-36" d="m327.8,327.94c-1.19,3.34-2.53,6.65-3.96,9.95,12.76,6.78,29.37,15.37,29.37,15.37,0,0-10.93-14.47-25.41-25.32Z"/>
          </g>
        </g>
        <path class="cls-36" d="m460.6,135.88s-3.76,25.29-16.08,46.62c0,0,19.1-11.58,32.82-39.08l-16.75-7.54Z"/>
      </g>
      <g>
        <path class="cls-36" d="m176.21,318.05s-.11,3.51,1.26,11.53c.93,5.5,1.05,17.68,9.43,24.94,5.09,4.41,16.73,12.73,25.1,18.58-5.34,10-11.99,19.25-20.17,27.63-7.06-6.08-16.1-13.47-21.84-16.65-9.11-5.05-16.76-6.57-23.33-6.57-1.04,0-2.05.04-3.04.11-7.24.5-24.46,4.55-24.46,4.55l2.88-10.22s17.65-3.11,25.9-3.11c.41,0,.79,0,1.15.02.07,0,.14,0,.2,0,6.91,0-20.87-18.05-20.87-18.05l4.13-10.89s15.86,13.98,20.11,13.98c.32,0,.58-.08.76-.25,2.5-2.46-9.53-14.76-9.53-14.76l7.96-9.91s7.68,15.11,14.85,16.66c.55.12,1.04.18,1.48.18,5.19,0,2.23-8.17.41-14.97-1.97-7.37-4.2-11.79-4.2-11.79l11.85-1m.01-5.67c-.16,0-.33,0-.49.02l-11.85,1c-1.88.16-3.55,1.24-4.47,2.88-.92,1.64-.96,3.64-.11,5.32.01.03,2.02,4.08,3.79,10.7.21.8.44,1.62.67,2.44.23.81.51,1.8.77,2.81-2.48-2.63-5.49-6.92-7.65-11.16-.87-1.72-2.55-2.87-4.47-3.07-.2-.02-.39-.03-.59-.03-1.71,0-3.34.77-4.42,2.12l-7.96,9.91c-.52.65-.88,1.38-1.07,2.15-.7-.6-1.4-1.2-2.09-1.81-1.05-.92-2.38-1.42-3.75-1.42-.45,0-.91.05-1.36.17-1.81.45-3.28,1.75-3.94,3.49l-4.13,10.89c-.95,2.49-.02,5.31,2.21,6.76,4.04,2.63,8.46,5.68,12.13,8.38-7.85.92-15.9,2.33-16.4,2.42-2.14.38-3.88,1.95-4.47,4.05l-2.88,10.22c-.54,1.93-.03,4.01,1.36,5.46,1.08,1.13,2.57,1.75,4.09,1.75.43,0,.87-.05,1.3-.15,4.67-1.1,17.99-4.03,23.55-4.41.89-.06,1.79-.09,2.66-.09,6.74,0,13.47,1.92,20.58,5.86,4.21,2.34,11.63,8.02,20.89,15.99,1.07.92,2.39,1.37,3.7,1.37,1.48,0,2.95-.57,4.06-1.71,8.3-8.5,15.4-18.23,21.11-28.92,1.35-2.53.6-5.67-1.75-7.32-12.11-8.47-20.86-14.95-24.64-18.22-5.42-4.7-6.39-12.57-7.1-18.32-.15-1.18-.28-2.29-.45-3.28-1.22-7.17-1.18-10.42-1.18-10.45.05-1.62-.59-3.16-1.77-4.27-1.05-1-2.45-1.54-3.89-1.54h0Zm-.01,11.34h0,0Z"/>
        <path class="cls-23" d="m169.98,384.08c5.74,3.18,14.78,10.57,21.84,16.65,8.18-8.38,14.82-17.63,20.17-27.63-8.36-5.85-20.01-14.17-25.1-18.58-8.38-7.26-8.49-19.44-9.43-24.94-1.36-8.03-1.26-11.53-1.26-11.53l-11.85,1s2.23,4.42,4.2,11.79c1.97,7.37,5.28,16.34-1.89,14.79-7.17-1.55-14.85-16.66-14.85-16.66l-7.96,9.91s12.04,12.3,9.53,14.76c-2.5,2.46-20.87-13.72-20.87-13.72l-4.13,10.89s28.3,18.38,20.67,18.04c-7.62-.34-27.05,3.09-27.05,3.09l-2.88,10.22s17.22-4.05,24.46-4.55c7.24-.5,15.82.61,26.38,6.46Z"/>
        <path class="cls-36" d="m133.7,276.03c10.01,0,17.88,8.65,17.88,8.65,2.62-5.06,6.79-7.16,11.13-7.16,4.11,0,8.39,1.88,11.67,4.9,8.48,7.81,9.82,22.19,2.92,31.43-4.44,5.95-11.9,9.23-19.3,9.23-4.08,0-8.14-1-11.66-3.1-1.22,8.79-6.4,17.13-14.17,21.43-2.06,1.14-4.29,1.95-6.6,2.45.07.1.15.18.22.28,3.87,5.35,3.74,13.16.65,19.02-3.31,6.27-8.38,11.09-15.17,11.09-.51,0-1.03-.03-1.57-.08,1.84,3.85-.3,11.64-2.84,14.5-2.88,3.25-9.35,5.02-14.66,5.02-1.58,0-3.07-.16-4.32-.48-5.47-1.4-10.04-4.52-13.59-8.91-4.3-5.33-7.58-11.64-6.84-18.45.74-6.81,4.76-14.97,11.55-15.86-8.17-5.84-7.55-16-4.14-22.3,1.54-2.85,3.92-4.72,6.69-5.77-2.21-6.32-2.06-13.49.33-19.03,4-9.25,12.74-16.95,22.7-16.95,3.79,0,7.76,1.12,11.72,3.69,1.48-4.52,4.51-9.05,9.35-11.57,2.76-1.44,5.47-2.01,8.05-2.01m0-5.67h0c-3.7,0-7.29.89-10.67,2.65-3.83,2-7.04,5.07-9.39,8.91-2.94-1.11-5.97-1.67-9.05-1.67-11.42,0-22.64,8.18-27.91,20.37-2.38,5.5-2.96,12.13-1.74,18.48-2.09,1.55-3.8,3.53-5.07,5.87-3.73,6.89-4.4,16.06-.03,23.32-4.66,4.15-7.36,10.82-8.03,16.92-.81,7.39,1.9,15,8.06,22.62,4.39,5.43,10.12,9.18,16.59,10.84,1.7.44,3.63.66,5.73.66,5.89,0,14.37-1.82,18.91-6.93,2.31-2.6,4.51-7.91,4.88-13.08,6.23-1.56,11.61-6.23,15.47-13.53,3.1-5.87,3.74-12.74,1.99-18.67.5-.24.99-.49,1.47-.76,7.02-3.88,12.54-10.7,15.34-18.63,2.48.67,5.09,1.02,7.75,1.02,9.55,0,18.46-4.3,23.84-11.51,4.18-5.59,6.1-12.76,5.41-20.17-.69-7.41-3.9-14.09-9.03-18.82-4.42-4.07-10.07-6.4-15.51-6.4-4.59,0-8.72,1.64-11.97,4.65-3.98-2.89-10.02-6.14-17.04-6.14h0Z"/>
        <path class="cls-19" d="m151.58,284.68s-12.44-13.68-25.92-6.64c-4.83,2.52-7.86,7.05-9.34,11.57-14.34-9.33-28.9.5-34.42,13.26-2.39,5.53-2.54,12.71-.33,19.03-2.77,1.05-5.15,2.92-6.69,5.77-3.41,6.3-4.03,16.46,4.14,22.3-6.79.89-10.81,9.05-11.55,15.86-.74,6.81,2.53,13.12,6.84,18.45,3.54,4.39,8.12,7.51,13.59,8.91,5.47,1.4,15.24-.32,18.99-4.54,2.54-2.86,4.67-10.65,2.84-14.5,7.58.8,13.18-4.26,16.74-11,3.09-5.86,3.22-13.66-.65-19.02-.07-.1-.15-.18-.22-.28,2.3-.5,4.54-1.31,6.6-2.45,7.77-4.3,12.95-12.63,14.17-21.43,9.9,5.91,24.06,3.11,30.96-6.13,6.9-9.24,5.56-23.62-2.92-31.43-6.75-6.22-17.7-7.59-22.8,2.26Z"/>
        <path class="cls-34" d="m103.8,342.33c3.96,10.92,2.84,21.63-3.51,29.39-6.75,8.24-27.91,6.98-32.91-3.73.07,5.98,3.07,11.53,6.92,16.29,3.54,4.39,8.12,7.51,13.59,8.91s15.24-.32,18.99-4.54c2.54-2.86,4.67-10.65,2.84-14.5,7.58.8,13.18-4.26,16.74-11,2.41-4.57,2.99-10.31,1.31-15.16-8.37-.03-16.51-1.71-23.95-5.65Z"/>
        <path class="cls-36" d="m125.57,343.85c-3.16.48-12.49,2.52-20.76-.8,0,0,9.55,14.16,23.53,11.13,13.98-3.04,14.55-13.21,14.55-13.21,0,0-13.98,2.38-17.32,2.88Z"/>
        <path class="cls-36" d="m116.31,289.61s9.62,5.79,12.45,11.21c0,0-.43-17.02-13.99-23.75l1.54,12.54Z"/>
        <path class="cls-36" d="m70.55,379.94s-5.27-13.69,2.6-21.15c4.24-4.02,10.15-5.24,16.11-3.61,0,0-4.46-8.04-12.85-8.07-11.47-.05-14.88,11.35-14.88,11.35l9.03,21.48Z"/>
        <path class="cls-36" d="m146.34,319.97c.38-5.55-1.31-13.28-3.36-18.96,0,0,14.99,4.54,14.28,26.02l-10.92-7.06Z"/>
        <path class="cls-36" d="m81.56,321.9s3.88,9.24,9.82,10.7c0,0-17.9,4.43-21.5-11.02l11.68.32Z"/>
      </g>
      <g>
        <path class="cls-22" d="m467.65,249.09c11.66,47.94.34,92.26-65.61,113.15-67.05,21.24-100.58-7.46-119.06-52.73-.92-2.26-.32-7.64,1.69-8.29,49.9-16.1,130.69-42.16,176.39-56.9,1.94-.62,6.07,2.66,6.59,4.78Z"/>
        <path class="cls-36" d="m461.59,244.24c2.07,0,5.58,2.92,6.05,4.85,11.66,47.94.34,92.26-65.61,113.15-15.44,4.89-29.11,7.14-41.23,7.14-40.47,0-63.61-25.02-77.84-59.86-.92-2.26-.32-7.64,1.69-8.29,49.9-16.1,130.69-42.16,176.39-56.9.16-.05.34-.08.53-.08m0-5.67c-.79,0-1.55.12-2.28.35l-176.39,56.9c-1.43.46-3.41,1.61-4.73,4.43-1.56,3.34-1.76,8.24-.47,11.4,8.12,19.88,18.15,34.66,30.67,45.19,14.36,12.07,32,18.2,52.41,18.2,12.99,0,27.44-2.49,42.94-7.4,32.33-10.24,54.29-26.84,65.29-49.35,9.43-19.29,10.81-43.03,4.11-70.55-1.11-4.55-6.94-9.18-11.56-9.18h0Z"/>
        <path class="cls-29" d="m442.56,264.21c9.21,32.59-2.08,64.93-46.64,79.05-45.56,14.43-72.48-5.07-84.05-36.89l130.69-42.16Z"/>
        <path class="cls-22" d="m386.05,298.49c4.83,8.09,12.4,20.66,12.76,29.34.36,8.68-9.17,9.67-11.9,3.94-3.94-8.25-5.83-25.39-6.29-31.35-.46-5.96,1.25-8.91,5.43-1.92Z"/>
        <path class="cls-22" d="m369.22,305.17c1.18,8.48,3.08,21.68-.07,28.94-3.15,7.26-12.26,4.44-12.47-1.31-.3-8.27,4.83-23.06,6.8-28.13,1.97-5.07,4.72-6.84,5.74.49Z"/>
        <path class="cls-22" d="m354.53,308.22c-3.79,5.7-9.66,14.61-15.54,16.99-5.89,2.38-10.15-4.77-7.21-8.27,4.24-5.05,15.41-10.67,19.37-12.46,3.96-1.8,6.65-1.18,3.38,3.74Z"/>
        <path class="cls-22" d="m395.26,296.77c4,7.57,10.17,19.39,16.97,23.44,6.8,4.05,12.54-3.56,9.35-8.35-4.59-6.89-17.4-15.89-21.96-18.85-4.56-2.96-7.82-2.79-4.37,3.75Z"/>
        <path class="cls-22" d="m408.97,290.65c6.41,2.41,16.38,6.22,22.54,4.71,6.17-1.51,5.45-9.8,1.01-10.93-6.39-1.62-18.74.35-23,1.21-4.27.86-6.09,2.93-.55,5.01Z"/>
        <path class="cls-11" d="m418.71,332.7c-11.72.3-23.12-1.77-33.4-7.46-30.79-17.03-29.88-41.01-32.3-46.07-24.87,8.02-48.95,15.79-68.35,22.05-2.01.65-2.61,6.04-1.69,8.29,18.48,45.27,52.02,73.97,119.06,52.73,41.1-13.02,60.98-35.15,67.3-61.57-9.48,16.42-26.81,31.43-50.63,32.03Z"/>
      </g>
      <g>
        <path class="cls-36" d="m206.82,148.02c.87,6.15-14.4,10.15-20.62,9.69-5.2-.43-2.83-8.79-3.09-14.1-.34-7.13-7.07-23.62-10.4-33.33-2.67-7.77,6.67-8.21,8.89-6.63.03,0,.04.02.04.02,3.68,2.73,7.41,16.6,10.73,26.31,3.33,9.7,13.59,11.92,14.45,18.04Z"/>
        <path class="cls-36" d="m206.98,143.38c10.94,0,19.93,4.29,26.82,9.92,2.11,1.69,3.99,3.51,5.7,5.37,13.16,14.4,16.45,19.32,51.51,51.96,33.3,31.03,73.37,82.51,51.64,130.41-17.18,37.8-50.56,53.15-64.37,56.49-6.78,2.98-19.76,6.59-35.79,6.59-14.76,0-32.12-3.06-49.65-12.47-46.35-24.91-43.68-89.79-38.02-135.01.61-4.91,1.17-9.4,1.67-13.53,3.72-30.33,4.74-41.28,5.97-58.41.49-6.79,5.72-30.72,29.3-38.69,5.43-1.83,10.51-2.63,15.22-2.63m0-5.67v5.67-5.67c-5.55,0-11.29.99-17.04,2.93-24.31,8.21-32.31,32.14-33.14,43.65-1.25,17.39-2.28,28.23-5.94,58.13-.36,2.97-.76,6.12-1.17,9.49l-.5,4.04c-2.5,19.94-5.26,49.61-.45,76.81,5.4,30.53,19.33,52.03,41.41,63.9,16.24,8.73,33.84,13.15,52.33,13.15,19.64,0,33.26-5.01,37.61-6.87,17.29-4.35,50.49-21.62,67.72-59.54,10.45-23.04,8.67-48.75-5.28-76.43-12.63-25.05-32.89-46.71-47.65-60.47-29.1-27.1-36.24-35.04-45.28-45.1-1.83-2.04-3.73-4.15-5.91-6.54-2.06-2.25-4.13-4.2-6.31-5.95-8.97-7.32-19.48-11.19-30.39-11.19h0Z"/>
        <path class="cls-23" d="m342.65,341.05c-17.18,37.8-50.56,53.15-64.37,56.49-13.03,5.73-48.88,13.76-85.44-5.88-46.35-24.91-43.68-89.79-38.02-135.01.61-4.91,1.17-9.4,1.67-13.53,3.72-30.33,4.74-41.28,5.97-58.41.49-6.79,5.72-30.72,29.3-38.69,18.02-6.09,32.18-.77,42.05,7.29,2.11,1.69,3.99,3.51,5.7,5.37,13.16,14.4,16.45,19.32,51.51,51.96,33.3,31.03,73.37,82.51,51.64,130.41Z"/>
        <path class="cls-2" d="m323.57,337.78c-12.86,31.68-39.03,44-49.93,46.55-10.22,4.59-38.51,10.66-67.93-6.74-37.29-22.06-36.5-76.98-32.94-115.18.38-4.15.73-7.94,1.05-11.43,2.33-25.63,2.92-34.89,3.54-49.37.25-5.75,3.91-25.92,22.46-32.18,14.17-4.79,25.52,0,33.52,7.04,1.71,1.47,3.24,3.06,4.63,4.67,10.74,12.47,13.45,16.7,41.94,45.08,27.06,26.97,59.92,71.42,43.65,111.57Z"/>
        <g>
          <path class="cls-21" d="m289.22,285.82c9.81,25.94-.56,53.89-23.16,62.44-22.6,8.55-48.87-5.53-58.69-31.47-11.7-30.92-6.39-72.21,16.21-80.77,8.09-3.06,17.29-1.52,26.32,3.15,16.18,8.37,31.8,26.78,39.31,46.64Z"/>
          <path class="cls-27" d="m215.9,248.54c-6.64,10.75-8.85,37.68-1.45,58.74,7.39,21.06,23.92,23.53,37.64,20.09,13.71-3.44,21.94-30.41,13.65-49.39-13.07-29.97-36.22-51.47-49.84-29.44Z"/>
        </g>
        <path class="cls-16" d="m223.25,259.71c-8.39,8.33-8.2,31.58-.65,40.43,7.38,8.66,9.19-3.24,10.44-10.48.9-5.19,3.69-42.04-9.4-30.33-.13.12-.26.24-.39.37Z"/>
        <path class="cls-12" d="m270.03,361.96c-64.46,11.57-112.75-42.6-118.22-57.94.64,35.19,9.47,70.68,41.02,87.64,36.56,19.65,72.41,11.61,85.44,5.88,13.81-3.34,47.2-18.69,64.37-56.49,7.69-16.94,7.62-34.33,2.88-51.1-15.13,51.88-24.52,62.86-75.49,72.01Z"/>
      </g>
      <g>
        <path class="cls-36" d="m151.89,439.87h17.33c3.75,5.15,7.5,12.16,11.99,12.18,4.48.01,7.34-3.53,12.79-8.7,0,0,16.32,5.48,22.57,2.39l-2.5-26.61-62.17-5.79v26.53Z"/>
        <path class="cls-36" d="m292.31,334.41c10.34,0,20.59.92,30.33,2.68,61.46,11.14,73.34,22.11,73.34,22.11,0,0-55.55,41.93-95.3,65.75-18.51,11.09-40.72,14.06-59.16,14.06-21.15,0-37.35-3.9-37.35-3.9,37.41-51.52,97.63-65.38,97.63-65.38-2.39-.18-4.77-.26-7.12-.26-64.45,0-113.43,64.61-113.43,64.61,0-.52.03-1.01.03-1.53-1.01-2.83-27.85-57.29-71.63-60.76,0,0,33.72,16.09,52.28,57.7,0,0-6.39,1.57-15.46,1.57-11.41,0-27.04-2.48-39.48-13.71-22.32-20.14-52.11-59.36-52.11-59.36,0,0,11.75-14.07,50.5-16.4,1.35-.08,2.7-.12,4.06-.12,34.45,0,71.52,25.91,72.51,67.58,6.77-52.58,59.68-74.64,110.35-74.64m0-5.67c-28.03,0-54.5,6.53-74.53,18.4-16.12,9.55-27.89,22.35-34.85,37.69-4.29-11.23-11.41-21.31-21-29.5-14.54-12.4-33.67-19.52-52.48-19.52-1.47,0-2.95.04-4.4.13-40.04,2.41-53.15,16.79-54.51,18.42-1.69,2.03-1.76,4.96-.16,7.06,1.23,1.62,30.37,39.88,52.82,60.15,13.89,12.53,31.2,15.17,43.28,15.17,9.64,0,16.52-1.66,16.81-1.73,1.63-.4,3-1.5,3.74-3.01.74-1.51.77-3.27.09-4.8-5.42-12.15-12.06-22.22-18.82-30.41,3.17,2.95,6,5.97,8.47,8.83,10.43,12.08,17.06,24.38,18.81,28.07,0,.16,0,.32,0,.48.03,2.42,1.6,4.55,3.9,5.31.58.19,1.18.28,1.77.28,1.74,0,3.43-.8,4.52-2.24.12-.15,12.21-15.94,31.78-31.47,9.18-7.28,21.04-15.29,34.72-21.33-16.83,9.98-36.76,25.15-52.68,47.07-1.11,1.53-1.39,3.52-.73,5.29s2.15,3.11,3.99,3.55c.69.17,17.1,4.05,38.67,4.05,24.73,0,45.61-5,62.07-14.86,39.55-23.7,95.24-65.67,95.8-66.09,1.34-1.01,2.16-2.57,2.25-4.24.08-1.68-.58-3.31-1.82-4.45-1.34-1.24-14.86-12.42-76.17-23.52-10.16-1.84-20.71-2.77-31.34-2.77h0Z"/>
        <path class="cls-19" d="m105.39,341.6c35.53-2.14,75.54,24.14,76.57,67.46,8.15-63.31,83.19-82.38,140.68-71.96,61.46,11.14,73.34,22.11,73.34,22.11,0,0-55.55,41.93-95.3,65.75-39.75,23.82-100.12,10.16-100.12,10.16,37.41-51.52,101.25-65.38,101.25-65.38-67.92-5.07-120.55,66.15-120.55,66.15,0-.52.03.8.03.28-1.01-2.83-24.37-55.88-71.63-64.37,0,0,35.53,16.09,54.09,57.7,0,0-34.42,8-56.74-12.14-22.32-20.14-52.11-59.36-52.11-59.36,0,0,11.75-14.07,50.5-16.4Z"/>
        <g>
          <path class="cls-34" d="m333.79,394.19c-27.9,18.84-58.39,34.42-93.08,32.15-1.63-.11-2.87-1.52-2.43-3.19,6.75-25.88,28.11-37.96,49.82-49.4-20.84,7.08-60.89,24.66-87.54,61.36,0,0,60.37,13.66,100.12-10.16,39.75-23.82,95.3-65.75,95.3-65.75,0,0-.39-.36-1.38-1-22.14,7.37-42.7,23.77-60.81,36Z"/>
          <path class="cls-34" d="m111.03,372.48c-.57-.25-1.14-.51-1.71-.76,11.16,10.02,21.19,22.14,32.27,41.62,0,0-9.38,2.84-24.67-3.8-17.22-7.48-19.96-10.63-36.39-20.01,8.55,9.9,18.04,20.23,26.46,27.83,22.32,20.14,56.74,12.14,56.74,12.14-16.4-36.77-46.03-53.6-52.71-57.02Z"/>
        </g>
      </g>
      <g>
        <g>
          <path class="cls-35" d="m327.81,428.23c-7.65-6.58-11.76-16.44-10.58-26.46,1.3-11.03,7.1-26.03,26.06-39.61,35.46-25.4,72.84-41.09,98.1-32.34,0,0,41.2,6.83,16.87,58.43-22.31,47.32-92.62,72.51-130.46,39.98Z"/>
          <path class="cls-24" d="m463.41,344.62c-6.82-13.02-21.26-15.54-21.72-15.61-10.55-3.65-23.57-3.29-38.74,1.1-17.94,5.17-38.72,16.02-60.15,31.35-6.56,4.69-11.55,9.58-15.35,14.37-1.28,1.66-2.45,3.31-3.48,4.93-.17.27-.34.55-.51.81-.17.29-.33.58-.5.86-4.18,7.13-5.95,13.83-6.58,19.24-.17,1.44-.22,2.86-.19,4.28.09,3.1.63,6.15,1.64,9.06,1.78,5.26,5,10.07,9.42,13.86,5,4.3,10.67,7.68,16.84,10.13,1.88.75,3.82,1.4,5.79,1.97.33.12.67.21,1.01.29,4.33,1.2,8.89,1.95,13.6,2.3.24.02.48.03.72.05,5,.34,10.19.17,15.5-.5,4.97-.6,10.04-1.64,15.16-3.12.58-.17,1.17-.34,1.75-.53,7.08-2.18,13.89-5.09,20.32-8.65.27-.15.53-.29.81-.45,1.59-.91,3.15-1.83,4.69-2.84,6.89-4.33,13.19-9.42,18.71-15.08,5.04-5.12,9.42-10.69,12.99-16.6,1.44-2.36,2.72-4.78,3.89-7.23,1.8-3.8,3.27-7.45,4.44-10.96.1-.27.19-.55.27-.82.1-.27.19-.57.27-.84.53-1.71.99-3.39,1.37-5.04,2.42-10.36,1.76-19.19-1.99-26.33Zm-111.46,77.7c-.29-.02-.6-.02-.89-.05-.29,0-.58-.02-.87-.03-1.76-.1-3.53-.27-5.26-.5-4.06-.51-8.04-1.39-11.87-2.6-.02,0-.03,0-.05-.02-4.97-1.58-9.73-3.77-14.15-6.6-.55-2.06-.86-4.16-.93-6.29-.07-1.44,0-2.9.17-4.35.63-5.41,2.45-12.16,6.8-19.34.17-.27.34-.57.51-.84.17-.27.34-.53.53-.81,1.06-1.63,2.26-3.26,3.61-4.9,3.6-4.4,8.24-8.84,14.24-13.14,21.28-15.21,41.89-25.97,59.64-31.1,14.8-4.28,27.48-4.66,37.83-1.08.09,0,4.16.74,8.93,3.29,1.17,8.27-.5,19.26-7.33,33.79-.51,1.1-1.06,2.18-1.63,3.24-.99,1.88-2.07,3.72-3.2,5.52-.21.31-.39.62-.62.93-.19.31-.39.63-.62.94-6.89,10.28-16.1,19.19-26.57,26.23-1.44.98-2.91,1.9-4.4,2.81-.24.15-.5.29-.74.45-.26.14-.51.29-.77.45-2.47,1.44-4.99,2.78-7.56,4.01-.02,0-.03.02-.03.02-2.23,1.08-4.51,2.07-6.78,2.98-3.03,1.22-6.1,2.28-9.2,3.19h-.02c-1.11.33-2.23.63-3.36.93-6.58,1.7-13.23,2.69-19.79,2.9-1.88.07-3.75.07-5.62,0Z"/>
          <path class="cls-24" d="m435.65,334.63s-.18.4-.11,1.41c.01.51.12,1.09.06,2-.12.64-.14.79-.33,1.33-.16.48-.34.91-.58,1.39-.91,1.92-2.64,3.85-4.85,5.51l-.42.31-.46.32c-.28.19-.52.38-.87.59-.68.43-1.33.79-2.02,1.13-1.36.7-2.8,1.33-4.19,1.95-1.38.64-2.73,1.29-3.9,2.06-.59.38-1.14.81-1.66,1.27-.3.27-.61.54-.92.81l-.84.81c-2.35,2.32-4.66,5.18-7.42,8.21-1.36,1.51-2.9,3.09-4.52,4.5-1.7,1.5-3.39,2.84-5.23,4.1-3.62,2.53-7.54,4.6-11.51,6.41-1.97.9-4.02,1.71-5.97,2.46-1.92.74-3.83,1.47-5.73,2.2-3.76,1.48-7.44,2.94-10.92,4.49-3.5,1.52-6.79,3.13-9.88,4.75-3.06,1.64-5.98,3.27-8.44,4.97-2.48,1.68-4.64,3.36-6.26,5.13-1.63,1.75-2.81,3.49-3.46,5.12-.37.8-.53,1.57-.74,2.24-.09.68-.23,1.28-.25,1.77-.03,1-.05,1.53-.05,1.53l-.4.07s-.15-.54-.42-1.56c-.12-.52-.16-1.17-.25-1.96.02-.77-.05-1.71.16-2.7.31-2.01,1.12-4.42,2.59-6.79,1.47-2.36,3.42-4.82,5.84-7.07,2.42-2.28,5.12-4.5,8.13-6.69,3.02-2.16,6.34-4.25,9.85-6.22,3.52-1.94,7.22-3.8,11.02-5.51,1.88-.87,3.83-1.72,5.73-2.52,1.9-.8,3.69-1.62,5.5-2.47,3.6-1.7,7.05-3.61,10.24-5.72,1.57-1.06,3.15-2.19,4.53-3.31,1.48-1.2,2.83-2.4,4.22-3.72,2.75-2.62,5.55-5.46,8.7-7.82.41-.3.82-.6,1.23-.9.4-.27.79-.53,1.18-.79.9-.56,1.82-1.05,2.72-1.44,1.81-.81,3.54-1.26,5.11-1.64,1.57-.38,3-.66,4.29-1,.64-.16,1.27-.35,1.81-.51.26-.06.6-.21.91-.32l.4-.15.42-.17c2.17-.92,3.87-2,5.02-3.18.28-.29.55-.61.75-.89.18-.2.48-.77.55-.84.25-.53.38-1.21.54-1.7.25-1.03.77-1.57.75-1.51l.34.25Z"/>
          <path class="cls-25" d="m440.68,359.67s-.13.39-.39,1.12c-.27.72-.65,1.79-1.24,3.1-1.14,2.64-3,6.32-5.65,10.5-1.32,2.1-2.85,4.3-4.59,6.55-1.69,2.29-3.67,4.54-5.77,6.84-2.11,2.28-4.4,4.54-6.88,6.67-1.21,1.11-2.51,2.12-3.78,3.18-1.3,1.03-2.66,1.99-4,2.97-2.74,1.88-5.52,3.72-8.39,5.29-1.44.78-2.86,1.56-4.32,2.24-1.44.71-2.86,1.39-4.31,1.98-1.42.63-2.85,1.18-4.27,1.67-1.41.5-2.78,1.02-4.15,1.4-2.7.89-5.34,1.45-7.75,2-2.43.48-4.66.85-6.65,1.09-1.99.22-3.72.42-5.16.47-2.87.11-4.5.13-4.5.13l-.05-.43s1.58-.39,4.34-1.07c1.38-.28,3.02-.85,4.91-1.32,1.89-.5,3.97-1.26,6.26-1.96,1.13-.41,2.3-.83,3.51-1.27,1.21-.44,2.42-1,3.7-1.48,1.28-.48,2.54-1.09,3.85-1.67,1.32-.56,2.61-1.25,3.94-1.91,1.34-.63,2.67-1.35,4-2.1,1.35-.71,2.66-1.52,3.99-2.33,2.67-1.6,5.3-3.35,7.86-5.19,2.52-1.9,5.04-3.8,7.41-5.82,1.19-1,2.36-2.01,3.47-3.06,1.14-1.01,2.24-2.05,3.32-3.07,2.13-2.07,4.13-4.14,6.01-6.13,1.88-1.99,3.54-3.97,5.12-5.78,3.08-3.68,5.52-6.88,7.19-9.16,1.67-2.29,2.56-3.65,2.56-3.65l.39.18Z"/>
          <path class="cls-35" d="m463.09,353.7s.17.95.27,2.63c.02.84.08,1.86.04,3.02.02,1.17-.09,2.49-.21,3.92-.17,1.43-.32,2.98-.62,4.61-.15.81-.29,1.65-.45,2.5-.19.85-.42,1.7-.63,2.58-.39,1.76-1,3.52-1.57,5.33-.61,1.79-1.33,3.57-2.04,5.35-.83,1.73-1.62,3.48-2.48,5.16-.92,1.65-1.79,3.29-2.69,4.84-.95,1.52-1.94,2.95-2.84,4.33-.93,1.36-1.91,2.56-2.76,3.71-1.68,2.33-3.39,4.01-4.47,5.27-1.13,1.23-1.77,1.93-1.77,1.93l-.32-.28s.55-.77,1.52-2.12c.49-.67,1.09-1.47,1.77-2.4.71-.9,1.39-2.02,2.18-3.19.77-1.18,1.68-2.42,2.51-3.81.82-1.39,1.65-2.88,2.58-4.38.83-1.55,1.68-3.16,2.54-4.79.81-1.66,1.54-3.39,2.33-5.09.65-1.76,1.42-3.47,2.02-5.21.56-1.76,1.22-3.45,1.65-5.15.5-1.68.91-3.33,1.28-4.9.39-1.57.63-3.07.88-4.46.42-2.78.69-5.12.78-6.77.08-1.65.06-2.59.06-2.59l.43-.04Z"/>
          <path class="cls-25" d="m322.48,400.4s.05-.77.27-2.08c.25-1.3.61-3.18,1.32-5.35.32-1.1.79-2.24,1.24-3.47.52-1.2,1.03-2.49,1.69-3.76.67-1.26,1.35-2.58,2.18-3.84.76-1.3,1.66-2.54,2.57-3.77.85-1.28,1.95-2.36,2.92-3.51.98-1.14,2.12-2.1,3.13-3.12,1.02-1.01,2.16-1.81,3.18-2.63,1-.85,2.08-1.47,3.03-2.1.97-.6,1.8-1.24,2.65-1.62.83-.42,1.55-.78,2.14-1.08,1.19-.58,1.87-.92,1.87-.92l.19.38s-.63.41-1.73,1.13c-.55.35-1.22.78-1.99,1.27-.78.46-1.56,1.15-2.48,1.79-.89.68-1.9,1.34-2.83,2.23-.93.88-2.02,1.68-3,2.67-.96,1.01-2.04,1.96-2.97,3.09-.92,1.13-1.95,2.21-2.81,3.42-.9,1.18-1.79,2.36-2.55,3.61-.83,1.21-1.51,2.47-2.19,3.69-1.33,2.44-2.44,4.81-3.21,6.91-1.64,4.17-2.21,7.12-2.21,7.12l-.42-.06Z"/>
        </g>
        <path class="cls-17" d="m423.8,439.5c-.24,1.47-.57,2.91-.99,4.35-.53,1.78-1.22,3.55-2.04,5.28-.75,1.54-1.63,3.07-2.64,4.57-5.16,7.85-13.64,15.04-25.37,21.52-.36.21-.72.39-1.1.6-2.38-.65-4.71-1.42-6.96-2.3-2.19,1.01-4.44,1.94-6.75,2.74-.36-.15-.7-.33-1.06-.5-1.06-.5-2.11-1.03-3.12-1.59h-.02c-.58-.31-1.15-.62-1.7-.96-8.19-4.68-15.16-10.79-20.58-18.18-.69-.93-1.34-1.87-1.97-2.83-.33-.5-.65-1.01-.94-1.52-1.03-1.73-1.9-3.53-2.62-5.38-.81-2.06-1.42-4.16-1.85-6.3-6.17-2.45-11.84-5.82-16.84-10.13-4.42-3.79-7.64-8.6-9.42-13.86-1.01-2.91-1.56-5.96-1.64-9.06-.03-1.42.02-2.84.19-4.28.63-5.41,2.4-12.11,6.58-19.24.17-.27.33-.57.5-.86.17-.26.34-.53.51-.81,1.03-1.63,2.19-3.27,3.48-4.93.34.02.69.03,1.03.09.36,0,.72.03,1.08.07.17,0,.36.02.55.03l1.66.14.12.02c.45.03.89.07,1.32.12.69.05,1.35.12,2.02.19,6.7.65,13.17,1.54,19.24,2.67,1.88.34,3.77.72,5.62,1.11,2.31.5,4.59,1.05,6.82,1.61,2.23.58,4.4,1.2,6.46,1.83.7.22,1.39.45,2.06.67,1.59.5,3.25,1.06,5.09,1.75.05.02.09.03.14.05,2.33.87,4.57,1.78,6.73,2.78.38.15.75.33,1.13.51.38.17.75.34,1.11.53,1.75.82,3.43,1.7,5.02,2.6,2.3,1.28,4.45,2.64,6.46,4.06.57.41,1.11.81,1.63,1.2,1.18.89,2.24,1.75,3.22,2.6.39.34.77.67,1.13,1.01.89.79,1.68,1.58,2.4,2.33.26.26.51.53.74.79,1.4,1.47,2.67,2.98,3.8,4.56.21.29.41.57.6.86.93,1.03,3.27,3.82,5.41,7.95,1.28,2.45,2.47,5.38,3.25,8.69.07.29.14.58.17.87.09.34.15.69.22,1.05.07.36.14.75.19,1.13.46,3.26.45,6.54-.07,9.8Z"/>
        <g>
          <path class="cls-35" d="m260.02,424.97c-2.22-9.84.36-20.21,7.28-27.55,7.61-8.08,21.22-16.67,44.54-16.26,43.61.76,82.98,10.44,98.04,32.53,0,0,29.01,30.05-21.3,56.97-46.13,24.69-117.59,2.99-128.57-45.69Z"/>
          <path class="cls-24" d="m418.76,430.36c-.03-.31-.09-.62-.14-.91-1.7-9.59-7.78-15.98-8.04-16.24-1.37-2.02-2.96-3.96-4.78-5.81-.99-1.05-2.07-2.06-3.22-3.05-1.39-1.22-2.88-2.36-4.47-3.5-5.33-3.77-11.77-7.08-19.27-9.87-1.61-.6-3.27-1.18-4.97-1.71-2.64-.87-5.4-1.68-8.26-2.42-3.84-.99-7.86-1.88-12.08-2.66-6.92-1.28-14.31-2.26-22.08-2.91-.6-.05-1.2-.1-1.8-.15-1.23-.1-2.47-.19-3.72-.26-.34-.03-.67-.05-1.01-.07-.31-.02-.63-.03-.96-.05-3.96-.24-8-.39-12.11-.46-24.07-.41-37.86,8.75-45.18,16.53-7.01,7.44-9.82,18.02-7.49,28.32,4.95,22.02,22.63,40.19,48.47,49.86,22.99,8.58,48.9,8.91,70.29,1.25,3.84-1.35,7.54-2.98,11.03-4.85,17.82-9.54,27.82-20.54,29.74-32.72.46-2.96.41-5.76.03-8.33Zm-156.57-23.37c1.32-3.29,3.26-6.36,5.74-8.98,7.08-7.54,20.46-16.41,43.89-16,3.79.07,7.5.19,11.14.41.33,0,.63.02.94.05.33,0,.67.02.99.05,1.27.07,2.52.15,3.75.26.58.03,1.17.09,1.75.12,7.4.62,14.44,1.49,21.07,2.67,4.01.7,7.88,1.49,11.58,2.4,3.05.74,5.98,1.56,8.79,2.42,2.21.7,4.35,1.42,6.41,2.19,7.08,2.64,13.17,5.74,18.28,9.25,1.61,1.11,3.1,2.26,4.51,3.44,1.17.98,2.26,1.99,3.27,3.02,1.88,1.9,3.53,3.89,4.97,5.98.05.07,2.9,3.1,5.19,7.98-2.76,5.04-7.33,10.31-14.51,15.56,0,0,0,.02-.02.02-.74.55-1.51,1.1-2.3,1.63-2.72,1.85-5.77,3.7-9.2,5.53-11.24,6.01-23.95,9.27-36.95,10.04-37.47,2.3-77.11-15.95-89.29-48.04Z"/>
          <path class="cls-24" d="m402.39,414.12s-.38.21-.93,1.07c-.29.42-.55.95-1.14,1.64-.48.44-.58.55-1.05.87-.41.29-.82.53-1.29.78-1.87,1-4.41,1.52-7.18,1.53h-.52s-.56-.01-.56-.01c-.34-.01-.64,0-1.05-.05-.8-.06-1.54-.16-2.3-.29-1.51-.25-3.04-.6-4.52-.93-1.49-.31-2.95-.59-4.36-.68-.71-.05-1.4-.03-2.09.03-.4.03-.81.07-1.22.1l-1.16.15c-3.27.46-6.84,1.38-10.85,2.16-1.99.4-4.17.75-6.31.92-2.26.19-4.42.26-6.64.17-4.42-.13-8.8-.8-13.06-1.71-2.12-.45-4.25-1.03-6.26-1.59-1.98-.55-3.95-1.1-5.91-1.65-3.9-1.06-7.72-2.08-11.44-2.9-3.71-.86-7.32-1.54-10.76-2.07-3.44-.51-6.75-.94-9.74-1.04-3-.13-5.73-.06-8.08.39-2.35.43-4.34,1.13-5.82,2.05-.78.42-1.36.95-1.93,1.36-.48.49-.95.89-1.26,1.28-.62.79-.95,1.2-.95,1.2l-.37-.18s.21-.52.59-1.51c.21-.49.58-1.04.97-1.73.48-.6.98-1.4,1.74-2.07,1.45-1.43,3.53-2.89,6.13-3.91,2.59-1.02,5.62-1.83,8.9-2.2,3.3-.39,6.8-.56,10.52-.52,3.72.06,7.62.37,11.61.88,3.99.54,8.06,1.25,12.13,2.14,2.03.43,4.1.9,6.11,1.4,2,.49,3.93.9,5.89,1.3,3.91.78,7.81,1.3,11.63,1.51,1.89.08,3.83.12,5.61.05,1.9-.09,3.7-.24,5.6-.47,3.77-.47,7.71-1.07,11.65-1.1.51,0,1.02,0,1.52,0,.48.02.95.05,1.42.07,1.06.09,2.08.24,3.04.47,1.93.43,3.59,1.1,5.08,1.73,1.49.63,2.8,1.26,4.03,1.76.61.25,1.23.47,1.75.67.25.1.61.19.92.29l.41.12.43.11c2.29.56,4.3.7,5.92.44.4-.07.81-.16,1.13-.27.26-.06.85-.33.94-.35.51-.28,1.03-.74,1.44-1.04.82-.68,1.55-.8,1.5-.77l.12.4Z"/>
          <path class="cls-25" d="m391.5,437.22s-.34.23-.98.67c-.64.42-1.59,1.05-2.84,1.75-2.49,1.44-6.18,3.29-10.8,5.06-2.31.9-4.85,1.75-7.59,2.52-2.72.83-5.66,1.45-8.71,2.05-3.05.57-6.24,1.03-9.5,1.26-1.63.17-3.28.21-4.93.3-1.65.05-3.32.01-4.98,0-3.32-.13-6.65-.31-9.89-.76-1.62-.23-3.23-.45-4.8-.78-1.58-.29-3.13-.59-4.64-.98-1.52-.35-2.99-.75-4.42-1.21-1.43-.44-2.84-.84-4.17-1.35-2.7-.9-5.15-2.02-7.41-3.01-2.23-1.06-4.25-2.1-5.99-3.09-1.73-1.01-3.24-1.88-4.42-2.7-2.37-1.63-3.69-2.57-3.69-2.57l.22-.37s1.5.63,4.12,1.73c1.28.6,2.93,1.11,4.73,1.87,1.81.73,3.94,1.36,6.19,2.16,1.15.34,2.34.7,3.57,1.08,1.23.37,2.54.65,3.85,1.02,1.31.38,2.69.64,4.09.95,1.39.33,2.84.56,4.3.82,1.45.29,2.95.51,4.46.7,1.51.24,3.04.37,4.59.51,3.09.31,6.25.47,9.4.52,3.16-.02,6.31-.05,9.42-.25,1.55-.09,3.09-.21,4.61-.38,1.52-.13,3.02-.31,4.5-.48,2.95-.39,5.79-.86,8.48-1.34,2.7-.48,5.21-1.08,7.56-1.59,4.66-1.12,8.53-2.23,11.23-3.07,2.7-.84,4.23-1.4,4.23-1.4l.2.38Z"/>
          <path class="cls-35" d="m413.05,445.8s-.43.86-1.35,2.27c-.48.68-1.04,1.54-1.77,2.45-.68.95-1.55,1.94-2.5,3.02-.99,1.04-2.03,2.21-3.24,3.33-.6.57-1.22,1.15-1.85,1.74-.65.57-1.35,1.12-2.04,1.69-1.36,1.18-2.9,2.23-4.44,3.34-1.56,1.07-3.2,2.08-4.83,3.08-1.7.89-3.38,1.83-5.07,2.67-1.72.78-3.4,1.57-5.05,2.28-1.67.65-3.32,1.21-4.86,1.78-1.55.54-3.06.92-4.43,1.33-2.73.87-5.11,1.2-6.73,1.57-1.64.31-2.57.49-2.57.49l-.09-.42s.9-.29,2.49-.79c.79-.24,1.75-.53,2.85-.87,1.11-.3,2.32-.79,3.65-1.26,1.33-.49,2.79-.95,4.28-1.56,1.49-.63,3.05-1.33,4.68-1.98,1.59-.76,3.23-1.54,4.9-2.33,1.64-.85,3.26-1.8,4.9-2.7,1.57-1.03,3.21-1.94,4.73-2.98,1.5-1.08,3.03-2.05,4.4-3.15,1.41-1.05,2.72-2.13,3.95-3.17,1.25-1.02,2.34-2.09,3.37-3.05,1.99-1.99,3.61-3.7,4.66-4.97,1.04-1.28,1.59-2.04,1.59-2.04l.37.22Z"/>
          <path class="cls-25" d="m272.33,399.45s.49-.59,1.46-1.5c.98-.9,2.38-2.19,4.25-3.51.91-.69,1.97-1.33,3.07-2.05,1.13-.66,2.31-1.39,3.6-2.01,1.29-.61,2.62-1.26,4.04-1.78,1.39-.59,2.84-1.05,4.31-1.5,1.44-.52,2.97-.73,4.43-1.07,1.47-.33,2.96-.42,4.37-.64,1.42-.2,2.81-.17,4.12-.22,1.31-.08,2.55.06,3.69.12,1.14.09,2.19.08,3.1.28.91.16,1.71.29,2.36.41,1.3.24,2.05.38,2.05.38l-.07.42s-.75-.05-2.06-.12c-.65-.05-1.45-.1-2.36-.17-.91-.1-1.94,0-3.05-.04-1.12.01-2.33-.06-3.6.1-1.27.15-2.62.14-4,.36-1.37.24-2.81.36-4.23.7-1.41.36-2.88.61-4.29,1.07-1.43.41-2.85.83-4.2,1.38-1.38.47-2.69,1.09-3.96,1.66-2.53,1.17-4.83,2.41-6.7,3.63-3.81,2.37-6.02,4.4-6.02,4.4l-.31-.3Z"/>
        </g>
        <path class="cls-17" d="m465.4,370.95c-.38,1.64-.84,3.32-1.37,5.04-.09.27-.17.57-.27.84-.09.27-.17.55-.27.82-1.16,3.51-2.64,7.16-4.44,10.96-1.17,2.45-2.45,4.87-3.89,7.23-3.56,5.91-7.95,11.48-12.99,16.6-5.52,5.65-11.82,10.74-18.71,15.08-1.54,1.01-3.1,1.94-4.69,2.84.38,2.57.43,5.36-.03,8.33-.33,2.12-.91,4.21-1.75,6.25-.63,1.59-1.4,3.15-2.35,4.69-.93,1.52-1.99,3.03-3.2,4.52-5.02,6.17-12.52,11.94-22.44,17.25-1.04.55-2.09,1.1-3.17,1.59-.36.19-.74.36-1.11.51-2.19,1.01-4.44,1.94-6.75,2.74-.36-.15-.7-.33-1.06-.5-1.06-.5-2.11-1.03-3.12-1.59h-.02c-.58-.31-1.15-.62-1.7-.96-8.19-4.68-15.16-10.79-20.58-18.18-.69-.93-1.34-1.87-1.97-2.83-.33-.5-.65-1.01-.94-1.52-1.03-1.73-1.9-3.53-2.62-5.38-.81-2.06-1.42-4.16-1.85-6.3-.07-.34-.12-.65-.17-.99v-.02c-.93-5.41-.6-10.98.99-16.26.03-.15.09-.29.14-.43.33-1.03.69-2.06,1.11-3.05.84-1.99,1.87-4.09,3.17-6.29,4.21-7.16,11.14-15.06,22.49-21.57.33-.19.67-.38,1.03-.57.33-.19.67-.38,1.01-.55,2.07-1.1,4.27-2.16,6.63-3.15,1.66-.72,3.41-1.39,5.23-2.04,15.83-5.6,30.96-9.56,44.78-11.75,1.53-.24,3.03-.46,4.52-.65h.02c2.09-.29,4.15-.51,6.17-.7,4.42-.43,8.67-.63,12.71-.63,2.14,0,4.21.05,6.25.19.63.02,1.27.07,1.88.12.84.05,1.66.12,2.47.22.29.02.58.03.86.07Z"/>
        <g>
          <path class="cls-35" d="m354.53,448.92c-5.52-8.44-6.74-19.06-2.83-28.35,4.3-10.23,14.04-23.04,36.03-30.83,41.12-14.56,81.38-19.27,103.22-3.85,0,0,37.69,17.99,0,60.82-34.56,39.27-109.1,43.98-136.43,2.22Z"/>
          <path class="cls-24" d="m508,406.21c-2.95-14.39-16.12-20.83-16.55-21.02-7.08-5-16.28-8.09-27.43-9.2-.29-.05-.58-.07-.87-.09-.79-.09-1.59-.14-2.4-.19-.69-.05-1.39-.09-2.09-.12-1.54-.07-3.12-.1-4.73-.1-5,0-10.33.34-15.92,1.01-2.18.24-4.39.55-6.63.91-2.11.33-4.23.7-6.41,1.13-11.75,2.24-24.38,5.74-37.54,10.4-.02,0-.05.02-.07.02-22.63,8.05-32.31,21.45-36.46,31.28-.27.65-.53,1.32-.74,1.99-1.97,5.74-2.12,11.91-.55,17.78.07.33.17.65.26.96.87,2.93,2.19,5.77,3.92,8.43,7.16,10.91,17.84,19.14,30.89,24.12,2.24.87,4.57,1.64,6.96,2.3,7.73,2.16,16.12,3.29,25.01,3.29,28.94,0,57.65-12.2,74.94-31.83,13.35-15.18,18.86-28.99,16.4-41.07Zm-96.58,47.95c-16.65.65-32.96-2.76-46.21-10.55-.55-.34-1.1-.67-1.63-.99-4.95-3.12-9.44-6.87-13.31-11.29.05-3.05.62-6.1,1.66-9.01.17-.48.36-.94.55-1.4,4.01-9.53,13.43-22.53,35.53-30.36.53-.19,1.06-.38,1.59-.55,11.63-4.06,22.84-7.2,33.36-9.34,2.38-.48,4.71-.93,7.01-1.28,2.31-.39,4.57-.74,6.8-1.01,6.05-.77,11.79-1.17,17.15-1.17,1.42,0,2.81.03,4.16.09.72.02,1.42.05,2.12.1.81.05,1.61.1,2.4.17.29.03.57.05.86.09,11.02,1.06,20.1,4.06,27.12,9.01.07.03,3.79,1.88,7.66,5.65-1.18,8.26-5.82,18.37-16.43,30.41-15.71,17.85-39.68,28.54-63.7,30.98-2.24.24-4.47.39-6.7.46Z"/>
          <path class="cls-24" d="m484.1,388.91s-.28.33-.5,1.33c-.13.49-.19,1.08-.5,1.93-.29.58-.35.72-.68,1.18-.28.42-.58.78-.94,1.18-1.4,1.59-3.6,2.97-6.19,3.94l-.49.18-.53.18c-.32.11-.6.22-1,.32-.77.23-1.5.39-2.25.53-1.51.29-3.06.5-4.56.71-1.5.23-2.97.48-4.32.89-.68.2-1.32.46-1.94.76-.37.17-.73.35-1.11.52l-1.03.55c-2.9,1.58-5.92,3.69-9.41,5.83-1.73,1.08-3.65,2.16-5.59,3.07-2.05.97-4.05,1.79-6.16,2.49-4.18,1.43-8.52,2.33-12.83,2.97-2.14.32-4.34.52-6.42.71-2.05.18-4.09.35-6.11.53-4.03.38-7.96.76-11.74,1.29-3.78.49-7.4,1.12-10.81,1.82-3.4.73-6.65,1.49-9.49,2.43-2.85.93-5.39,1.95-7.43,3.19-2.05,1.23-3.67,2.57-4.74,3.96-.58.66-.94,1.36-1.33,1.95-.28.63-.58,1.17-.73,1.64-.31.95-.47,1.46-.47,1.46l-.41-.04s0-.56.03-1.62c.03-.53.18-1.17.3-1.96.23-.73.42-1.66.9-2.55.86-1.84,2.3-3.94,4.37-5.81,2.07-1.86,4.62-3.68,7.57-5.18,2.96-1.52,6.17-2.9,9.67-4.17,3.5-1.24,7.27-2.32,11.18-3.24,3.92-.89,7.99-1.65,12.11-2.24,2.05-.31,4.16-.59,6.21-.83,2.05-.24,3.99-.53,5.97-.85,3.93-.63,7.77-1.51,11.42-2.66,1.8-.58,3.63-1.23,5.27-1.92,1.75-.75,3.38-1.53,5.08-2.41,3.37-1.76,6.85-3.7,10.52-5.1.48-.18.96-.35,1.43-.53.46-.15.91-.29,1.36-.43,1.02-.29,2.04-.5,3.01-.63,1.96-.28,3.75-.23,5.37-.16,1.62.07,3.06.2,4.39.23.66.02,1.32.01,1.88.01.27.01.64-.03.96-.05l.43-.03.45-.05c2.34-.28,4.27-.85,5.7-1.66.35-.2.7-.44.96-.64.23-.15.68-.61.76-.65.38-.44.7-1.05.99-1.48.53-.92,1.17-1.29,1.14-1.25l.26.34Z"/>
          <path class="cls-25" d="m481.98,414.36s-.24.34-.68.97c-.46.62-1.12,1.54-2.05,2.63-1.83,2.22-4.63,5.24-8.34,8.52-1.85,1.65-3.93,3.34-6.22,5.02-2.26,1.73-4.79,3.34-7.44,4.97-2.66,1.6-5.49,3.15-8.46,4.5-1.46.73-3,1.34-4.51,2.01-1.53.63-3.1,1.18-4.67,1.74-3.16,1.04-6.33,2.04-9.53,2.75-1.6.35-3.18.71-4.77.95-1.58.28-3.14.54-4.69.71-1.54.21-3.07.35-4.56.42-1.49.09-2.95.21-4.37.2-2.84.1-5.53-.09-8-.22-2.46-.21-4.71-.48-6.69-.8-1.97-.34-3.69-.63-5.08-.98-2.79-.69-4.36-1.12-4.36-1.12l.07-.42s1.62.07,4.46.18c1.41.11,3.13.02,5.09.09,1.96.05,4.17-.11,6.56-.14,1.19-.08,2.44-.16,3.73-.24,1.28-.08,2.61-.28,3.96-.39,1.36-.1,2.75-.34,4.16-.54,1.42-.18,2.85-.47,4.31-.74,1.46-.23,2.94-.56,4.42-.9,1.49-.31,2.98-.72,4.48-1.13,3-.79,6.02-1.75,8.99-2.8,2.95-1.12,5.9-2.26,8.74-3.53,1.42-.63,2.82-1.28,4.18-1.97,1.38-.65,2.72-1.35,4.04-2.02,2.62-1.39,5.12-2.83,7.47-4.22,2.36-1.39,4.51-2.83,6.52-4.14,3.98-2.68,7.21-5.08,9.45-6.81,2.24-1.74,3.47-2.79,3.47-2.79l.32.28Z"/>
          <path class="cls-35" d="m505.17,414.85s-.1.96-.47,2.6c-.21.81-.44,1.81-.8,2.92-.31,1.13-.77,2.36-1.29,3.71-.56,1.32-1.13,2.78-1.87,4.25-.36.74-.74,1.5-1.12,2.28-.41.76-.87,1.52-1.32,2.3-.86,1.58-1.94,3.11-2.99,4.68-1.08,1.55-2.27,3.06-3.45,4.58-1.28,1.43-2.52,2.9-3.81,4.27-1.34,1.33-2.63,2.66-3.93,3.91-1.34,1.2-2.68,2.3-3.93,3.37-1.27,1.05-2.55,1.93-3.69,2.8-2.26,1.77-4.37,2.91-5.76,3.83-1.42.87-2.24,1.36-2.24,1.36l-.23-.36s.75-.59,2.05-1.61c.66-.5,1.45-1.11,2.37-1.81.94-.67,1.89-1.55,2.98-2.46,1.07-.92,2.28-1.86,3.47-2.97,1.18-1.11,2.39-2.31,3.69-3.49,1.22-1.26,2.49-2.57,3.77-3.9,1.24-1.37,2.42-2.83,3.65-4.25,1.11-1.51,2.32-2.94,3.38-4.45,1.02-1.53,2.13-2.98,3.02-4.49.95-1.48,1.8-2.95,2.59-4.35.81-1.4,1.46-2.78,2.09-4.04,1.17-2.56,2.09-4.73,2.62-6.29.53-1.56.78-2.47.78-2.47l.42.08Z"/>
          <path class="cls-25" d="m357.13,420.71s.26-.72.84-1.92c.6-1.18,1.47-2.89,2.75-4.77.61-.97,1.38-1.94,2.16-2.99.83-1.01,1.68-2.11,2.67-3.14,1-1.03,2.01-2.1,3.16-3.08,1.09-1.04,2.29-1.98,3.51-2.91,1.17-.99,2.53-1.72,3.78-2.56,1.26-.82,2.62-1.43,3.87-2.13,1.26-.68,2.57-1.14,3.78-1.65,1.2-.54,2.41-.83,3.5-1.18,1.1-.31,2.08-.69,3-.82.91-.17,1.7-.32,2.36-.45,1.3-.23,2.05-.36,2.05-.36l.08.42s-.72.22-1.98.61c-.63.18-1.39.41-2.27.66-.88.23-1.82.67-2.87,1.03-1.04.4-2.2.76-3.34,1.35-1.14.58-2.41,1.05-3.62,1.74-1.2.7-2.51,1.32-3.71,2.14-1.2.83-2.48,1.58-3.64,2.51-1.19.88-2.38,1.77-3.45,2.76-1.13.93-2.14,1.96-3.12,2.94-1.96,1.98-3.68,3.94-5,5.75-2.74,3.55-4.1,6.23-4.1,6.23l-.39-.17Z"/>
        </g>
      </g>
    </g>
  </g>
</svg>